<svg width="50" height="50" viewBox="0 0 50 50" fill="none" xmlns="http://www.w3.org/2000/svg">
<path id="Vector" fill-rule="evenodd" clip-rule="evenodd" d="M28.5714 3.57143H7.14286V0H0V7.14286H3.57143V28.5714H0V35.7143H7.14286V32.1429H17.8571V42.8571H14.2857V50H21.4286V46.4286H42.8571V50H50V42.8571H46.4286V21.4286H50V14.2857H42.8571V17.8571H32.1429V7.14286H35.7143V0H28.5714V3.57143ZM7.14286 7.14286H28.5714V17.8571H21.4286V14.2857H14.2857V21.4286H17.8571V28.5714H7.14286V7.14286ZM28.5714 28.5714H21.4286V21.4286H28.5714V28.5714ZM21.4286 32.1429H28.5714V35.7143H35.7143V28.5714H32.1429V21.4286H42.8571V42.8571H21.4286V32.1429Z" fill="#26AB7E"/>
</svg>
