<svg width="46" height="50" viewBox="0 0 46 50" fill="none" xmlns="http://www.w3.org/2000/svg">
<g id="Group">
<path id="Vector" d="M9.16173e-05 25.0112C9.16173e-05 12.4857 10.2155 2.27028 22.741 2.27028V0.267889C22.741 0.0627097 22.9978 -0.091622 23.1517 0.0627097L28.4903 3.75875C28.6442 3.86152 28.6442 4.0667 28.4903 4.16947L23.1517 7.86551C22.9978 7.96828 22.741 7.86551 22.741 7.66033V5.65831C12.0636 5.65831 3.38813 14.3338 3.38813 25.0112C3.38813 31.1712 6.3655 37.0747 11.3961 40.668L9.3941 43.4395C3.49089 39.1788 0 32.2487 0 25.0106L9.16173e-05 25.0112ZM36.0878 6.58233L34.0858 9.30302C39.1164 12.9475 42.0938 18.8511 42.0938 25.0112C42.0938 35.6886 33.4183 44.3641 22.7409 44.3641V42.3621C22.7409 42.1569 22.4842 42.0025 22.3302 42.1569L16.9917 45.8529C16.8377 45.9557 16.8377 46.1609 16.9917 46.2636L22.3302 49.9597C22.4842 50.0624 22.7409 49.9597 22.7409 49.7545V47.7525C35.2664 47.7525 45.4818 37.537 45.4818 25.0116C45.4818 17.7727 41.9913 10.8425 36.0877 6.58177L36.0878 6.58233ZM33.7775 17.2084L32.289 18.6969C33.1104 19.929 33.7264 21.3149 33.983 22.8037L36.0878 22.8041C36.6013 22.8041 37.0117 23.2148 37.0117 23.7279V26.2946C37.0117 26.8081 36.6009 27.2185 36.0878 27.2185H33.9318C33.6239 28.707 33.0592 30.0931 32.2378 31.3253L33.7263 32.8138C34.0858 33.1733 34.0858 33.7892 33.7263 34.1483L31.9294 35.9452C31.5699 36.3047 30.954 36.3047 30.5948 35.9452L29.1063 34.4567C27.8742 35.2781 26.4884 35.8941 24.9995 36.1507V38.3068C24.9995 38.8202 24.5888 39.2306 24.0757 39.2306H21.509C20.9955 39.2306 20.5852 38.8199 20.5852 38.3068V36.1507C19.0967 35.8428 17.7106 35.2781 16.4784 34.4567L14.9899 35.9452C14.6304 36.3047 14.0144 36.3047 13.6553 35.9452L11.7041 34.2515C11.3446 33.892 11.3446 33.276 11.7041 32.9169L13.1926 31.4284C12.3712 30.1963 11.7553 28.8104 11.4986 27.3216L9.39383 27.3212C8.88034 27.3212 8.47 26.9105 8.47 26.3974V23.8307C8.47 23.3172 8.88072 22.9069 9.39383 22.9069H11.5499C11.8578 21.4184 12.4225 20.0323 13.2439 18.8001L11.7554 17.3116C11.3959 16.9521 11.3959 16.3361 11.7554 15.977L13.5522 14.1801C13.9118 13.8206 14.5277 13.8206 14.8868 14.1801L16.3753 15.6686C17.6074 14.8472 18.9933 14.2313 20.4821 13.9746V11.8186C20.4821 11.3051 20.8929 10.8947 21.406 10.8947H23.9727C24.4861 10.8947 24.8965 11.3055 24.8965 11.8186V13.9746C26.385 14.2825 27.7711 14.8472 29.0033 15.6686L30.4918 14.1801C30.8513 13.8206 31.4672 13.8206 31.8264 14.1801L33.6232 15.977C34.1371 16.233 34.1371 16.8493 33.7776 17.2084H33.7775ZM26.6937 25.4732H24.6405L24.6402 20.1347C24.6402 19.8779 24.435 19.7239 24.2295 19.7239H21.2009C20.9441 19.7239 20.7901 19.9291 20.7901 20.1347V25.4732H18.737C18.5318 25.4732 18.3775 25.7299 18.5318 25.8839L22.4331 30.6578C22.5871 30.8118 22.7926 30.8118 22.9466 30.6578L26.8478 25.8839C27.053 25.7299 26.9506 25.4732 26.6939 25.4732H26.6937Z" fill="#26A97D"/>
</g>
</svg>
