<svg width="46" height="50" viewBox="0 0 46 50" fill="none" xmlns="http://www.w3.org/2000/svg">
<g id="Group">
<path id="Vector" d="M42.8571 50H2.38095C1.74958 50 1.1437 49.7491 0.697279 49.3027C0.250857 48.8563 0 48.2504 0 47.619V2.38095C0 1.74958 0.250857 1.1437 0.697279 0.697279C1.1437 0.250857 1.74958 0 2.38095 0H19.0476V4.7619H5.95238C5.29497 4.7619 4.7619 5.29497 4.7619 5.95238V44.0476C4.7619 44.3633 4.88733 44.6662 5.11054 44.8895C5.33376 45.1127 5.63669 45.2381 5.95238 45.2381H39.2857C39.6014 45.2381 39.9043 45.1127 40.1276 44.8895C40.3508 44.6662 40.4762 44.3633 40.4762 44.0476V0H42.8571C43.4885 0 44.0944 0.250857 44.5408 0.697279C44.9872 1.1437 45.2381 1.74958 45.2381 2.38095V47.619C45.2381 48.2504 44.9872 48.8563 44.5408 49.3027C44.0944 49.7491 43.4885 50 42.8571 50Z" fill="#26AB7E"/>
<path id="Vector_2" d="M35.1782 24.1429L30.2973 20.369C29.9603 20.1994 29.5628 20.1994 29.2259 20.369L24.3449 24.1429C23.9745 24.3294 23.5339 24.3103 23.1815 24.0913C22.8292 23.8723 22.6161 23.4865 22.6187 23.0714V0.000671387H36.9044V23.0714C36.9071 23.4865 36.694 23.8723 36.3416 24.0913C35.9893 24.3103 35.5487 24.3294 35.1782 24.1429Z" fill="#26AB7E"/>
</g>
</svg>
