<svg width="44" height="52" viewBox="0 0 44 52" fill="none" xmlns="http://www.w3.org/2000/svg">
<g id="Group">
<path id="Vector" d="M14.508 40.9611C13.8536 40.1975 13.0352 39.652 12.1629 39.2704C11.0173 40.1431 9.54495 40.6339 8.01777 40.6339C6.4906 40.6339 5.01786 40.1431 3.87268 39.2704C1.58191 40.1975 0 42.4338 0 45.0517V47.7788C0 48.6516 0.709162 49.3603 1.58152 49.3603H11.3991V47.506C11.3443 44.8881 12.5986 42.4881 14.5078 40.9611H14.508Z" fill="#26AB7E"/>
<path id="Vector_2" d="M7.96337 38.4521C10.636 38.4521 12.8176 36.2706 12.8176 33.5979C12.8176 30.9252 10.6361 28.7437 7.96337 28.7437C5.29062 28.7437 3.10913 30.9251 3.10913 33.5979C3.16392 36.325 5.29101 38.4521 7.96337 38.4521V38.4521Z" fill="#26AB7E"/>
<path id="Vector_3" d="M39.2701 39.2157C38.1245 40.0885 36.6522 40.5792 35.125 40.5792C33.5435 40.5792 32.1251 40.0885 30.9799 39.2157C30.0527 39.5977 29.2343 40.1973 28.6348 40.9064C30.5439 42.4336 31.7982 44.8334 31.7982 47.4513V49.3057H41.6158C42.4885 49.3057 43.1973 48.5965 43.1973 47.7242V44.9971C43.1969 42.434 41.5605 40.1976 39.2699 39.2157H39.2701Z" fill="#26AB7E"/>
<path id="Vector_4" d="M30.2695 33.6524C30.2695 36.3251 32.451 38.5066 35.1238 38.5066C37.7965 38.5066 39.978 36.3251 39.978 33.6524C39.978 30.9797 37.7965 28.7982 35.1238 28.7982C32.451 28.7982 30.2695 30.9796 30.2695 33.6524V33.6524Z" fill="#26AB7E"/>
<path id="Vector_5" d="M25.6885 41.7246C24.5429 42.5974 23.0706 43.0882 21.5434 43.0882C20.0162 43.0882 18.5435 42.5974 17.3983 41.7246C15.1075 42.6518 13.5256 44.8881 13.5256 47.506V50.2331C13.5256 51.1059 14.2348 51.8146 15.1072 51.8146H28.0336C28.9064 51.8146 29.6151 51.1055 29.6151 50.2331V47.506C29.6155 44.8881 27.9792 42.6518 25.6885 41.7246V41.7246Z" fill="#26AB7E"/>
<path id="Vector_6" d="M16.6896 36.1068C16.6896 38.7795 18.8711 40.9611 21.5439 40.9611C24.2166 40.9611 26.3981 38.7796 26.3981 36.1068C26.3981 33.4341 24.2166 31.2526 21.5439 31.2526C18.8712 31.307 16.6896 33.4341 16.6896 36.1068V36.1068Z" fill="#26AB7E"/>
<path id="Vector_7" d="M21.5439 9.70848C24.2165 9.70848 26.3981 7.52699 26.3981 4.85424C26.3981 2.18149 24.2166 0 21.5439 0C18.8711 0 16.6896 2.18149 16.6896 4.85424C16.6896 7.58134 18.8711 9.70848 21.5439 9.70848Z" fill="#26AB7E"/>
<path id="Vector_8" d="M12.0541 22.9076V25.3619C12.0541 25.8527 12.3813 26.2347 12.8177 26.3983L21.217 28.9618C21.3262 29.0162 21.435 29.0162 21.5442 29.0162C21.6534 29.0162 21.7622 29.0162 21.8714 28.9618L30.2714 26.3983C30.7078 26.2347 31.035 25.8527 31.035 25.3619V22.9076C31.9077 22.7984 32.5077 22.0896 32.5077 21.1621V19.3077C32.5077 18.435 31.8533 17.7262 31.035 17.5622V14.3988C31.035 14.0716 30.8714 13.7444 30.5986 13.526C30.3258 13.308 29.9442 13.2532 29.6714 13.3624L29.017 13.5804C28.3627 12.1624 27.1627 11.0169 25.7443 10.4713C24.5988 11.3441 23.1264 11.8349 21.5992 11.8349C20.0721 11.8349 18.5993 11.3441 17.4541 10.4713C15.9814 11.0713 14.8362 12.2169 14.1814 13.5804L13.4723 13.4172C13.1451 13.308 12.8179 13.3628 12.5451 13.5808C12.2723 13.7988 12.1087 14.1264 12.1087 14.4535V17.617C11.2359 17.7262 10.636 18.435 10.636 19.3625V21.2168C10.5816 22.0892 11.236 22.7984 12.054 22.9076L12.0541 22.9076ZM22.6353 17.835L28.9074 15.9258V18.435C28.4166 18.9258 28.1438 19.5805 28.1438 20.2893C28.1438 20.9985 28.4166 21.6528 28.9074 22.1436V24.5979L22.6353 26.5074V17.835ZM14.1812 22.144C14.672 21.6532 14.9447 20.9984 14.9447 20.2897C14.9447 19.5805 14.6719 18.9261 14.1812 18.4354V15.9262L20.4537 17.835V26.5075L14.1816 24.5983L14.1812 22.144Z" fill="#26AB7E"/>
</g>
</svg>
