<svg width="44" height="50" viewBox="0 0 44 50" fill="none" xmlns="http://www.w3.org/2000/svg">
<g id="Group">
<path id="Vector" d="M38.4063 28.452C38.4063 29.3211 38.3476 30.196 38.2302 31.0592C38.2595 30.8537 38.2889 30.6423 38.3124 30.4367C38.0834 32.1103 37.6312 33.7486 36.9794 35.3047C37.0558 35.1168 37.138 34.9289 37.2143 34.741C36.5684 36.2619 35.7287 37.6888 34.7245 38.9982C34.8478 38.8397 34.9711 38.6811 35.0944 38.5226C34.0903 39.8203 32.9218 40.983 31.6299 41.9871C31.7884 41.8638 31.947 41.7405 32.1055 41.6172C30.7961 42.6272 29.3692 43.461 27.8483 44.107C28.0362 44.0307 28.2241 43.9485 28.412 43.8721C26.8559 44.5298 25.2176 44.9761 23.544 45.2051C23.7496 45.1757 23.961 45.1464 24.1665 45.1229C22.4401 45.3519 20.6843 45.3519 18.9579 45.1229C19.1635 45.1522 19.3748 45.1816 19.5804 45.2051C17.9068 44.9761 16.2685 44.5239 14.7124 43.8721C14.9003 43.9485 15.0882 44.0307 15.2761 44.107C13.7553 43.4611 12.3284 42.6214 11.0189 41.6172C11.1775 41.7405 11.336 41.8638 11.4945 41.9871C10.1968 40.983 9.03415 39.8145 8.02998 38.5226C8.15329 38.6811 8.27661 38.8397 8.39992 38.9982C7.38992 37.6888 6.55607 36.2619 5.9101 34.741C5.98644 34.9289 6.06865 35.1168 6.14498 35.3047C5.48731 33.7486 5.04106 32.1103 4.81202 30.4367C4.84138 30.6423 4.87075 30.8537 4.89423 31.0592C4.66522 29.3387 4.66522 27.6005 4.88836 25.88C4.859 26.0856 4.82964 26.297 4.80615 26.5025C5.03516 24.8172 5.48732 23.1672 6.14502 21.5993C6.06868 21.7872 5.98647 21.9751 5.91013 22.163C6.56193 20.6305 7.40748 19.1917 8.42336 17.8764C8.30005 18.0349 8.17673 18.1935 8.05342 18.352C8.95185 17.2011 9.96771 16.15 11.0012 15.1224C12.2343 13.8893 13.4968 12.6972 14.7769 11.5169C17.067 9.40294 19.3983 7.33596 21.753 5.2925C22.2463 4.86384 22.7395 4.44105 23.2387 4.01828H19.9151C21.3127 5.21036 22.6984 6.41994 24.0725 7.63554C26.668 9.93155 29.24 12.2569 31.7063 14.688C32.8865 15.8565 34.0668 17.0427 35.0886 18.3521C34.9653 18.1936 34.842 18.035 34.7187 17.8765C35.7345 19.1918 36.5801 20.6305 37.2319 22.1631C37.1555 21.9752 37.0733 21.7873 36.997 21.5994C37.6547 23.1673 38.1068 24.8173 38.3359 26.5026C38.3065 26.2971 38.2771 26.0857 38.2537 25.8802C38.3476 26.7316 38.4063 27.5889 38.4063 28.4521C38.4122 29.6794 39.4867 30.8597 40.7552 30.8009C42.0236 30.7422 43.1099 29.7675 43.104 28.4521C43.0923 24.8231 42.1762 21.2294 40.4322 18.0468C39.2108 15.8212 37.5372 13.9069 35.758 12.1101C34.1139 10.4425 32.3992 8.84527 30.6669 7.26567C29.0521 5.79173 27.4197 4.33551 25.7696 2.89679C24.9358 2.16865 24.0961 1.43466 23.2505 0.718248C23.2388 0.706504 23.227 0.700632 23.2153 0.688887C22.7514 0.295453 22.1877 -0.0275104 21.5534 0.00185677C20.9016 0.0312175 20.3908 0.266097 19.8916 0.688887C18.8581 1.5697 17.8363 2.4623 16.8146 3.3548C14.6596 5.24557 12.528 7.15406 10.4375 9.11527C8.55844 10.8769 6.63234 12.6562 5.00582 14.6585C4.26594 15.5628 3.57301 16.5083 2.97997 17.5123C2.3869 18.5165 1.90536 19.5734 1.47081 20.6539C0.636977 22.7209 0.19659 24.9288 0.0439019 27.1484C-0.208602 30.9712 0.636977 34.8233 2.35161 38.2349C3.97813 41.4705 6.47386 44.2127 9.43924 46.2679C12.4869 48.3819 16.0747 49.5739 19.7506 49.9145C23.5146 50.2668 27.2904 49.5152 30.7136 47.9473C34.0196 46.4382 36.803 44.013 38.9698 41.1181C40.0679 39.65 40.8959 38.0528 41.5888 36.3617C42.2993 34.6235 42.7045 32.8266 42.9394 30.9711C43.0451 30.1314 43.1038 29.2916 43.1038 28.4461C43.1038 27.2188 42.0234 26.0385 40.755 26.0972C39.4807 26.1618 38.4061 27.1366 38.4061 28.452L38.4063 28.452Z" fill="#26AB7E"/>
<path id="Vector_2" d="M40.7557 28.452C40.7557 39.057 32.159 47.6539 21.5538 47.6539V2.35657C21.5538 2.35657 32.8572 11.975 36.3812 16.2563C39.1118 19.5682 40.7559 23.8196 40.7559 28.4531L40.7557 28.452Z" fill="#26AB7E"/>
</g>
</svg>
