<svg width="350" height="36" viewBox="0 0 350 36" fill="none" xmlns="http://www.w3.org/2000/svg">
<path d="M78.375 11.6H90.925V15.1H82V19.025H89.9V22.525H82V26.5H91.275V30H78.375V11.6ZM97.8004 11.6L103.175 24.85L101.075 24.425L105.95 11.6H110.25L101.85 30.85L93.4504 11.6H97.8004ZM113.434 11.6H125.984V15.1H117.059V19.025H124.959V22.525H117.059V26.5H126.334V30H113.434V11.6ZM135.659 11.6C136.809 11.6 137.834 11.75 138.734 12.05C139.634 12.3333 140.384 12.75 140.984 13.3C141.601 13.8333 142.067 14.4833 142.384 15.25C142.701 16 142.859 16.85 142.859 17.8C142.859 18.55 142.742 19.3 142.509 20.05C142.292 20.8 141.926 21.4833 141.409 22.1C140.909 22.7167 140.242 23.2167 139.409 23.6C138.576 23.9667 137.542 24.15 136.309 24.15H133.709V30H130.084V11.6H135.659ZM136.284 20.65C136.834 20.65 137.292 20.5583 137.659 20.375C138.026 20.1917 138.309 19.9583 138.509 19.675C138.726 19.3917 138.876 19.1 138.959 18.8C139.059 18.4833 139.109 18.1917 139.109 17.925C139.109 17.725 139.076 17.475 139.009 17.175C138.959 16.8583 138.842 16.5417 138.659 16.225C138.476 15.9083 138.192 15.6417 137.809 15.425C137.442 15.2083 136.942 15.1 136.309 15.1H133.709V20.65H136.284ZM139.684 22.9L144.234 30H140.009L135.359 23L139.684 22.9ZM147.223 11.6H159.773V15.1H150.848V19.025H158.748V22.525H150.848V26.5H160.123V30H147.223V11.6ZM173.698 16.05C172.998 15.6667 172.281 15.35 171.548 15.1C170.831 14.85 170.156 14.725 169.523 14.725C168.74 14.725 168.123 14.8833 167.673 15.2C167.223 15.5167 166.998 15.9917 166.998 16.625C166.998 17.0583 167.165 17.45 167.498 17.8C167.848 18.1333 168.29 18.4333 168.823 18.7C169.373 18.9667 169.94 19.2083 170.523 19.425C171.056 19.625 171.581 19.8667 172.098 20.15C172.631 20.4167 173.106 20.7583 173.523 21.175C173.94 21.575 174.273 22.0833 174.523 22.7C174.773 23.3 174.898 24.0417 174.898 24.925C174.898 25.8583 174.656 26.725 174.173 27.525C173.69 28.325 172.981 28.975 172.048 29.475C171.115 29.9583 169.965 30.2 168.598 30.2C167.898 30.2 167.181 30.1333 166.448 30C165.731 29.85 165.023 29.6333 164.323 29.35C163.623 29.05 162.948 28.675 162.298 28.225L163.898 25.4C164.331 25.7167 164.798 26 165.298 26.25C165.815 26.4833 166.331 26.6667 166.848 26.8C167.365 26.9333 167.84 27 168.273 27C168.706 27 169.14 26.9417 169.573 26.825C170.023 26.6917 170.39 26.475 170.673 26.175C170.973 25.875 171.123 25.4583 171.123 24.925C171.123 24.5583 170.998 24.225 170.748 23.925C170.515 23.625 170.19 23.35 169.773 23.1C169.373 22.85 168.931 22.6333 168.448 22.45C167.881 22.2333 167.298 21.9833 166.698 21.7C166.098 21.4167 165.531 21.075 164.998 20.675C164.481 20.2583 164.056 19.75 163.723 19.15C163.406 18.5333 163.248 17.7833 163.248 16.9C163.248 15.8333 163.481 14.9083 163.948 14.125C164.431 13.3417 165.106 12.725 165.973 12.275C166.84 11.8083 167.84 11.55 168.973 11.5C170.456 11.5 171.656 11.675 172.573 12.025C173.506 12.375 174.34 12.7917 175.073 13.275L173.698 16.05ZM177.198 11.6H189.598V15.1H185.123V30H181.498V15.1H177.198V11.6ZM199.652 11.725H203.902L207.827 23.275L207.252 23.025L210.677 14.5L212.352 19.475L207.052 30.85L199.652 11.725ZM208.877 11.725H212.477L217.002 22.9L216.352 22.8L219.727 11.725H223.627L216.527 30.8L208.877 11.725ZM226.813 11.6H239.363V15.1H230.438V19.025H238.338V22.525H230.438V26.5H239.713V30H226.813V11.6ZM248.863 11.6C250.78 11.6 252.305 11.9917 253.438 12.775C254.571 13.5417 255.138 14.6917 255.138 16.225C255.138 17.3583 254.855 18.3083 254.288 19.075C253.738 19.825 252.98 20.3917 252.013 20.775C251.063 21.1417 249.971 21.325 248.738 21.325L248.163 19.375C249.68 19.375 251.021 19.5833 252.188 20C253.371 20.4167 254.305 21.0167 254.988 21.8C255.671 22.5667 256.013 23.4917 256.013 24.575C256.013 25.575 255.83 26.425 255.463 27.125C255.113 27.8083 254.63 28.3667 254.013 28.8C253.413 29.2167 252.73 29.525 251.963 29.725C251.196 29.9083 250.405 30 249.588 30H243.463V11.6H248.863ZM249.288 19.125C250.005 19.125 250.53 18.9083 250.863 18.475C251.213 18.0417 251.388 17.55 251.388 17C251.388 16.3667 251.171 15.8917 250.738 15.575C250.321 15.2583 249.755 15.1 249.038 15.1H247.088V19.125H249.288ZM249.413 26.625C249.946 26.625 250.43 26.5583 250.863 26.425C251.296 26.275 251.638 26.05 251.888 25.75C252.138 25.4333 252.263 25.0417 252.263 24.575C252.263 24.0417 252.113 23.6417 251.813 23.375C251.513 23.0917 251.121 22.9 250.638 22.8C250.171 22.6833 249.68 22.625 249.163 22.625H247.088V26.625H249.413ZM267.779 30V11.6H273.279C275.129 11.6 276.704 11.875 278.004 12.425C279.304 12.975 280.346 13.7083 281.129 14.625C281.929 15.5417 282.513 16.5667 282.879 17.7C283.246 18.8333 283.429 19.975 283.429 21.125C283.429 22.4917 283.179 23.725 282.679 24.825C282.196 25.9083 281.529 26.8417 280.679 27.625C279.829 28.3917 278.846 28.9833 277.729 29.4C276.613 29.8 275.429 30 274.179 30H267.779ZM271.404 26.5H273.554C274.471 26.5 275.304 26.3833 276.054 26.15C276.804 25.9 277.446 25.5417 277.979 25.075C278.529 24.6083 278.946 24.025 279.229 23.325C279.529 22.6083 279.679 21.7917 279.679 20.875C279.679 19.675 279.479 18.7 279.079 17.95C278.696 17.1833 278.213 16.5917 277.629 16.175C277.063 15.7583 276.479 15.475 275.879 15.325C275.279 15.1583 274.771 15.075 274.354 15.075H271.404V26.5ZM287.066 11.6H299.616V15.1H290.691V19.025H298.591V22.525H290.691V26.5H299.966V30H287.066V11.6ZM301.642 30L309.942 10.875H310.142L318.442 30H314.242L308.942 16.55L311.567 14.75L305.217 30H301.642ZM307.317 23.35H312.842L314.117 26.4H306.192L307.317 23.35ZM321.124 11.6H324.749V26.5H333.399V30H321.124V11.6ZM346.965 16.05C346.265 15.6667 345.548 15.35 344.815 15.1C344.098 14.85 343.423 14.725 342.79 14.725C342.006 14.725 341.39 14.8833 340.94 15.2C340.49 15.5167 340.265 15.9917 340.265 16.625C340.265 17.0583 340.431 17.45 340.765 17.8C341.115 18.1333 341.556 18.4333 342.09 18.7C342.64 18.9667 343.206 19.2083 343.79 19.425C344.323 19.625 344.848 19.8667 345.365 20.15C345.898 20.4167 346.373 20.7583 346.79 21.175C347.206 21.575 347.54 22.0833 347.79 22.7C348.04 23.3 348.165 24.0417 348.165 24.925C348.165 25.8583 347.923 26.725 347.44 27.525C346.956 28.325 346.248 28.975 345.315 29.475C344.381 29.9583 343.231 30.2 341.865 30.2C341.165 30.2 340.448 30.1333 339.715 30C338.998 29.85 338.29 29.6333 337.59 29.35C336.89 29.05 336.215 28.675 335.565 28.225L337.165 25.4C337.598 25.7167 338.065 26 338.565 26.25C339.081 26.4833 339.598 26.6667 340.115 26.8C340.631 26.9333 341.106 27 341.54 27C341.973 27 342.406 26.9417 342.84 26.825C343.29 26.6917 343.656 26.475 343.94 26.175C344.24 25.875 344.39 25.4583 344.39 24.925C344.39 24.5583 344.265 24.225 344.015 23.925C343.781 23.625 343.456 23.35 343.04 23.1C342.64 22.85 342.198 22.6333 341.715 22.45C341.148 22.2333 340.565 21.9833 339.965 21.7C339.365 21.4167 338.798 21.075 338.265 20.675C337.748 20.2583 337.323 19.75 336.99 19.15C336.673 18.5333 336.515 17.7833 336.515 16.9C336.515 15.8333 336.748 14.9083 337.215 14.125C337.698 13.3417 338.373 12.725 339.24 12.275C340.106 11.8083 341.106 11.55 342.24 11.5C343.723 11.5 344.923 11.675 345.84 12.025C346.773 12.375 347.606 12.7917 348.34 13.275L346.965 16.05Z" fill="#26AB7E"/>
<path d="M16.805 13.5066C13.8553 17.7645 11.027 21.8463 8.1987 25.9281C7.81091 26.4871 7.43604 27.0564 7.01982 27.5924C6.3735 28.4221 5.53071 28.6416 4.65947 28.0162C3.84511 27.4316 3.79082 26.5943 4.28461 25.7545C4.62328 25.1776 5.02399 24.6364 5.5488 23.8476C4.251 23.8476 3.16519 23.8553 2.07679 23.8476C0.810015 23.8349 0.0318515 23.2299 0.000828389 22.2573C-0.0301948 21.2592 0.812601 20.5649 2.11557 20.5546C3.74946 20.5419 5.38335 20.6006 7.01206 20.5189C7.46707 20.4959 8.06426 20.1871 8.32279 19.822C10.5694 16.6745 12.7539 13.4811 14.9617 10.303C16.257 8.43954 17.3557 8.44975 18.6742 10.3336C19.5713 11.6151 20.4658 12.8991 21.443 14.298C21.7791 13.8079 22.0428 13.4454 22.2858 13.0701C24.8142 9.14153 27.3322 5.20527 29.871 1.28178C30.9749 -0.423424 32.2132 -0.42853 33.3119 1.27412C36.3083 5.91237 39.2865 10.5634 42.2725 15.2093C42.5465 15.6356 42.8309 16.0593 43.2161 16.6465C44.3898 15.7352 45.5092 14.8494 46.6441 13.9891C47.9264 13.0191 48.6426 13.0727 49.7413 14.2444C51.4605 16.0798 53.1254 17.9688 54.8911 19.7608C55.3048 20.1794 56.0261 20.4985 56.6181 20.5189C59.0224 20.6031 61.4293 20.547 63.8361 20.5572C65.152 20.5623 66 21.226 66 22.2139C66 23.2324 65.2063 23.8451 63.8387 23.8502C62.2204 23.8578 60.5994 23.8502 58.6475 23.8502C59.6713 24.958 60.496 25.8438 61.3103 26.7398C62.241 27.766 62.3057 28.7309 61.5042 29.4202C60.6847 30.1247 59.7773 29.9715 58.8233 28.9428C55.2298 25.0653 51.6415 21.1852 47.96 17.2055C47.0138 17.9305 46.0831 18.6478 45.0154 19.4646C45.8427 20.764 46.6519 22.0378 47.4663 23.309C48.2212 24.4883 48.9916 25.66 49.7387 26.847C50.5272 28.0953 50.4238 29.05 49.4672 29.6142C48.6115 30.117 47.6601 29.7597 46.9259 28.6186C42.6292 21.9382 38.3377 15.2527 34.0436 8.57228C33.2473 7.33422 32.4433 6.10127 31.5798 4.77132C27.8803 10.5328 24.2532 16.1768 20.6286 21.8233C17.9219 26.0404 15.2151 30.26 12.5083 34.4771C12.4385 34.5843 12.3713 34.6915 12.2989 34.7987C11.5156 35.9729 10.665 36.2869 9.74986 35.7381C8.8657 35.2097 8.7416 34.1988 9.45513 33.0705C10.5435 31.3474 11.65 29.6346 12.7513 27.9192C14.8144 24.7028 16.8645 21.4736 18.9611 18.2776C19.3619 17.6675 19.473 17.2132 18.9844 16.5954C18.2502 15.6637 17.6065 14.6605 16.8025 13.5169L16.805 13.5066Z" fill="#26AB7E"/>
</svg>
