<svg width="47" height="37" viewBox="0 0 47 37" fill="none" xmlns="http://www.w3.org/2000/svg">
<path id="quotes" d="M21.3965 3.19043C19.3001 3.78288 17.3405 4.60319 15.5176 5.65137C13.7402 6.69954 12.168 7.93001 10.8008 9.34277C9.47917 10.71 8.43099 12.1911 7.65625 13.7861C6.88151 15.3812 6.49414 17.0218 6.49414 18.708C6.49414 19.7106 6.69922 20.5993 7.10938 21.374C7.51953 22.1032 7.99805 22.4678 8.54492 22.4678C9.13737 22.4678 9.61589 22.3538 9.98047 22.126C10.3906 21.8981 10.8008 21.6475 11.2109 21.374C11.6211 21.1006 12.0768 20.8499 12.5781 20.6221C13.125 20.3942 13.8314 20.2803 14.6973 20.2803C15.6087 20.2803 16.4518 20.4854 17.2266 20.8955C18.0469 21.2601 18.7533 21.7842 19.3457 22.4678C19.9837 23.1514 20.485 23.9717 20.8496 24.9287C21.2142 25.8857 21.3965 26.9111 21.3965 28.0049C21.3965 29.1898 21.1458 30.2835 20.6445 31.2861C20.1432 32.2887 19.4596 33.1546 18.5938 33.8838C17.7734 34.613 16.7936 35.2054 15.6543 35.6611C14.5605 36.0713 13.3757 36.2764 12.0996 36.2764C10.4134 36.2764 8.84115 35.9118 7.38281 35.1826C5.92448 34.4079 4.64844 33.3825 3.55469 32.1064C2.46094 30.7848 1.59505 29.2809 0.957031 27.5947C0.31901 25.863 0 24.0173 0 22.0576C0 18.9587 0.569661 16.1104 1.70898 13.5127C2.89388 10.915 4.44336 8.65918 6.35742 6.74512C8.31706 4.78548 10.5957 3.236 13.1934 2.09668C15.791 0.911784 18.5254 0.22819 21.3965 0.0458984V3.19043ZM46.0742 3.19043C44.0234 3.78288 42.0866 4.60319 40.2637 5.65137C38.4408 6.69954 36.8685 7.93001 35.5469 9.34277C34.2253 10.71 33.1771 12.1911 32.4023 13.7861C31.6276 15.3812 31.2402 17.0218 31.2402 18.708C31.2402 19.7106 31.4225 20.5993 31.7871 21.374C32.1973 22.1032 32.6986 22.4678 33.291 22.4678C33.8835 22.4678 34.362 22.3538 34.7266 22.126C35.1367 21.8981 35.5241 21.6475 35.8887 21.374C36.2988 21.1006 36.7546 20.8499 37.2559 20.6221C37.8027 20.3942 38.5091 20.2803 39.375 20.2803C40.2865 20.2803 41.1296 20.4854 41.9043 20.8955C42.7246 21.2601 43.431 21.7842 44.0234 22.4678C44.6615 23.1514 45.1628 23.9717 45.5273 24.9287C45.8919 25.8857 46.0742 26.9111 46.0742 28.0049C46.0742 29.1898 45.8236 30.2835 45.3223 31.2861C44.8665 32.2887 44.2057 33.1546 43.3398 33.8838C42.5195 34.613 41.5397 35.2054 40.4004 35.6611C39.2611 36.0713 38.0534 36.2764 36.7773 36.2764C35.0911 36.2764 33.5189 35.9118 32.0605 35.1826C30.6022 34.4079 29.3262 33.3825 28.2324 32.1064C27.1387 30.7848 26.2728 29.2809 25.6348 27.5947C24.9967 25.863 24.6777 24.0173 24.6777 22.0576C24.6777 18.9587 25.2474 16.1104 26.3867 13.5127C27.5716 10.915 29.1439 8.65918 31.1035 6.74512C33.0632 4.78548 35.319 3.236 37.8711 2.09668C40.4688 0.911784 43.2031 0.22819 46.0742 0.0458984V3.19043Z" fill="#C6C6C6"/>
</svg>
