<svg width="66" height="36" viewBox="0 0 66 36" fill="none" xmlns="http://www.w3.org/2000/svg">
<path id="Vector" d="M16.805 13.5066C13.8553 17.7645 11.027 21.8463 8.1987 25.9281C7.81091 26.4871 7.43604 27.0564 7.01982 27.5924C6.3735 28.4221 5.53071 28.6416 4.65947 28.0162C3.84511 27.4316 3.79082 26.5943 4.28461 25.7545C4.62328 25.1776 5.02399 24.6364 5.5488 23.8476C4.251 23.8476 3.16519 23.8553 2.07679 23.8476C0.810015 23.8349 0.0318515 23.2299 0.000828389 22.2573C-0.0301948 21.2592 0.812601 20.5649 2.11557 20.5546C3.74946 20.5419 5.38335 20.6006 7.01206 20.5189C7.46707 20.4959 8.06426 20.1871 8.32279 19.822C10.5694 16.6745 12.7539 13.4811 14.9617 10.303C16.257 8.43954 17.3557 8.44975 18.6742 10.3336C19.5713 11.6151 20.4658 12.8991 21.443 14.298C21.7791 13.8079 22.0428 13.4454 22.2858 13.0701C24.8142 9.14153 27.3322 5.20527 29.871 1.28178C30.9749 -0.423424 32.2132 -0.42853 33.3119 1.27412C36.3083 5.91237 39.2865 10.5634 42.2725 15.2093C42.5465 15.6356 42.8309 16.0593 43.2161 16.6465C44.3898 15.7352 45.5092 14.8494 46.6441 13.9891C47.9264 13.0191 48.6426 13.0727 49.7413 14.2444C51.4605 16.0798 53.1254 17.9688 54.8911 19.7608C55.3048 20.1794 56.0261 20.4985 56.6181 20.5189C59.0224 20.6031 61.4293 20.547 63.8361 20.5572C65.152 20.5623 66 21.226 66 22.2139C66 23.2324 65.2063 23.8451 63.8387 23.8502C62.2204 23.8578 60.5994 23.8502 58.6475 23.8502C59.6713 24.958 60.496 25.8438 61.3103 26.7398C62.241 27.766 62.3057 28.7309 61.5042 29.4202C60.6847 30.1247 59.7773 29.9715 58.8233 28.9428C55.2298 25.0653 51.6415 21.1852 47.96 17.2055C47.0138 17.9305 46.0831 18.6478 45.0154 19.4646C45.8427 20.764 46.6519 22.0378 47.4663 23.309C48.2212 24.4883 48.9916 25.66 49.7387 26.847C50.5272 28.0953 50.4238 29.05 49.4672 29.6142C48.6115 30.117 47.6601 29.7597 46.9259 28.6186C42.6292 21.9382 38.3377 15.2527 34.0436 8.57228C33.2473 7.33422 32.4433 6.10127 31.5798 4.77132C27.8803 10.5328 24.2532 16.1768 20.6286 21.8233C17.9219 26.0404 15.2151 30.26 12.5083 34.4771C12.4385 34.5843 12.3713 34.6915 12.2989 34.7987C11.5156 35.9729 10.665 36.2869 9.74986 35.7381C8.8657 35.2097 8.7416 34.1988 9.45513 33.0705C10.5435 31.3474 11.65 29.6346 12.7513 27.9192C14.8144 24.7028 16.8645 21.4736 18.9611 18.2776C19.3619 17.6675 19.473 17.2132 18.9844 16.5954C18.2502 15.6637 17.6065 14.6605 16.8025 13.5169L16.805 13.5066Z" fill="#26AB7E"/>
</svg>
